<svg fill="none" height="68" viewBox="0 0 265 68" width="265" xmlns="http://www.w3.org/2000/svg"><path d="m70.56 11.2v44.8h18.624v-6.4h-11.584v-38.4zm21.1115 10.752v23.296c0 7.168 3.776 11.264 10.6885 11.264 6.912 0 10.688-4.096 10.688-11.264v-23.296c0-7.168-3.776-11.264-10.688-11.264-6.9125 0-10.6885 4.096-10.6885 11.264zm7.04 23.744v-24.192c0-3.2 1.4085-4.416 3.6485-4.416s3.648 1.216 3.648 4.416v24.192c0 3.2-1.408 4.416-3.648 4.416s-3.6485-1.216-3.6485-4.416zm18.3355-23.744v23.296c0 7.168 3.776 11.264 10.688 11.264s10.688-4.096 10.688-11.264v-23.296c0-7.168-3.776-11.264-10.688-11.264s-10.688 4.096-10.688 11.264zm7.04 23.744v-24.192c0-3.2 1.408-4.416 3.648-4.416s3.648 1.216 3.648 4.416v24.192c0 3.2-1.408 4.416-3.648 4.416s-3.648-1.216-3.648-4.416zm28.127-7.552 6.848 17.856h7.232l-9.792-24.832 9.792-19.968h-7.041l-9.215 19.52v-19.52h-7.04v44.8h7.04v-13.76zm23.754-26.944h-7.04v34.112c0 7.168 3.584 11.264 10.496 11.264s10.496-4.096 10.496-11.264v-34.112h-6.656v34.56c0 3.2-1.408 4.352-3.648 4.352s-3.648-1.152-3.648-4.352zm29.148 0h-10.368v44.8h7.04v-16.832h3.328c7.04 0 10.496-3.904 10.496-11.072v-5.824c0-7.168-3.456-11.072-10.496-11.072zm-3.328 6.4h3.328c2.24 0 3.456 1.024 3.456 4.224v6.72c0 3.2-1.216 4.224-3.456 4.224h-3.328z" fill="#d3d3d3"/><path d="m70.56 11.2v-.2h-.2v.2zm0 44.8h-.2v.2h.2zm18.624 0v.2h.2v-.2zm0-6.4h.2v-.2h-.2zm-11.584 0h-.2v.2h.2zm0-38.4h.2v-.2h-.2zm-7.24 0v44.8h.4v-44.8zm.2 45h18.624v-.4h-18.624zm18.824-.2v-6.4h-.4v6.4zm-.2-6.6h-11.584v.4h11.584zm-11.384.2v-38.4h-.4v38.4zm-.2-38.6h-7.04v.4h7.04zm13.8715 10.952v23.296h.4v-23.296zm0 23.296c0 3.6174.953 6.4889 2.8064 8.4571 1.8551 1.9701 4.5858 3.0069 8.0821 3.0069v-.4c-3.4167 0-6.03-1.0112-7.7909-2.8811-1.7626-1.8718-2.6976-4.6323-2.6976-8.1829zm10.8885 11.464c3.495 0 6.226-1.0368 8.081-3.0069 1.853-1.9682 2.807-4.8397 2.807-8.4571h-.4c0 3.5506-.935 6.3111-2.698 8.1829-1.761 1.8699-4.374 2.8811-7.79 2.8811zm10.888-11.464v-23.296h-.4v23.296zm0-23.296c0-3.6174-.954-6.4889-2.807-8.4571-1.855-1.9701-4.586-3.0069-8.081-3.0069v.4c3.416 0 6.029 1.0112 7.79 2.8811 1.763 1.8718 2.698 4.6323 2.698 8.1829zm-10.888-11.464c-3.4963 0-6.227 1.0368-8.0821 3.0069-1.8534 1.9682-2.8064 4.8397-2.8064 8.4571h.4c0-3.5506.935-6.3111 2.6976-8.1829 1.7609-1.8699 4.3742-2.8811 7.7909-2.8811zm-3.4485 35.208v-24.192h-.4v24.192zm0-24.192c0-1.5752.3471-2.622.9328-3.2744.5817-.6481 1.4307-.9416 2.5157-.9416v-.4c-1.156 0-2.131.3145-2.8133 1.0744-.6783.7555-1.0352 1.9168-1.0352 3.5416zm3.4485-4.216c1.084 0 1.933.2935 2.515.9416.585.6524.933 1.6992.933 3.2744h.4c0-1.6248-.357-2.7861-1.036-3.5416-.682-.7599-1.657-1.0744-2.812-1.0744zm3.448 4.216v24.192h.4v-24.192zm0 24.192c0 1.5752-.348 2.622-.933 3.2744-.582.6481-1.431.9416-2.515.9416v.4c1.155 0 2.13-.3145 2.812-1.0744.679-.7556 1.036-1.9168 1.036-3.5416zm-3.448 4.216c-1.085 0-1.934-.2935-2.5157-.9416-.5857-.6524-.9328-1.6992-.9328-3.2744h-.4c0 1.6248.3569 2.786 1.0352 3.5416.6823.7599 1.6573 1.0744 2.8133 1.0744zm14.487-27.96v23.296h.4v-23.296zm0 23.296c0 3.6174.953 6.4889 2.806 8.4571 1.855 1.9701 4.586 3.0069 8.082 3.0069v-.4c-3.417 0-6.03-1.0112-7.791-2.8811-1.763-1.8718-2.697-4.6323-2.697-8.1829zm10.888 11.464c3.495 0 6.226-1.0368 8.081-3.0069 1.853-1.9682 2.807-4.8397 2.807-8.4571h-.4c0 3.5506-.935 6.3111-2.698 8.1829-1.761 1.8699-4.374 2.8811-7.79 2.8811zm10.888-11.464v-23.296h-.4v23.296zm0-23.296c0-3.6174-.954-6.4889-2.807-8.4571-1.855-1.9701-4.586-3.0069-8.081-3.0069v.4c3.416 0 6.029 1.0112 7.79 2.8811 1.763 1.8718 2.698 4.6323 2.698 8.1829zm-10.888-11.464c-3.496 0-6.227 1.0368-8.082 3.0069-1.853 1.9682-2.806 4.8397-2.806 8.4571h.4c0-3.5506.934-6.3111 2.697-8.1829 1.761-1.8699 4.374-2.8811 7.791-2.8811zm-3.448 35.208v-24.192h-.4v24.192zm0-24.192c0-1.5752.347-2.622.932-3.2744.582-.6481 1.431-.9416 2.516-.9416v-.4c-1.156 0-2.131.3145-2.813 1.0744-.679.7555-1.035 1.9168-1.035 3.5416zm3.448-4.216c1.084 0 1.933.2935 2.515.9416.585.6524.933 1.6992.933 3.2744h.4c0-1.6248-.357-2.7861-1.036-3.5416-.682-.7599-1.657-1.0744-2.812-1.0744zm3.448 4.216v24.192h.4v-24.192zm0 24.192c0 1.5752-.348 2.622-.933 3.2744-.582.6481-1.431.9416-2.515.9416v.4c1.155 0 2.13-.3145 2.812-1.0744.679-.7556 1.036-1.9168 1.036-3.5416zm-3.448 4.216c-1.085 0-1.934-.2935-2.516-.9416-.585-.6524-.932-1.6992-.932-3.2744h-.4c0 1.6248.356 2.786 1.035 3.5416.682.7599 1.657 1.0744 2.813 1.0744zm24.479-11.768.186-.0716-.157-.4101-.206.3879zm6.848 17.856-.187.0716.049.1284h.138zm7.232 0v.2h.293l-.107-.2734zm-9.792-24.832-.18-.0881-.039.0793.032.0822zm9.792-19.968.179.0881.141-.2881h-.32zm-7.041 0v-.2h-.126l-.054.1146zm-9.215 19.52h-.2l.38.0854zm0-19.52h.2v-.2h-.2zm-7.04 0v-.2h-.2v.2zm0 44.8h-.2v.2h.2zm7.04 0v.2h.2v-.2zm0-13.76-.177-.0938-.023.044v.0498zm1.989-4.0244 6.848 17.856.373-.1432-6.848-17.856zm7.035 17.9844h7.232v-.4h-7.232zm7.418-.2734-9.792-24.832-.373.1468 9.792 24.832zm-9.799-24.6705 9.792-19.968-.359-.1762-9.792 19.968zm9.613-20.2561h-7.041v.4h7.041zm-7.221.1146-9.216 19.52.361.1708 9.216-19.52zm-8.835 19.6054v-19.52h-.4v19.52zm-.2-19.72h-7.04v.4h7.04zm-7.24.2v44.8h.4v-44.8zm.2 45h7.04v-.4h-7.04zm7.24-.2v-13.76h-.4v13.76zm-.024-13.6662 2.176-4.096-.353-.1876-2.176 4.096zm25.754-31.1338h.2v-.2h-.2zm-7.04 0v-.2h-.2v.2zm20.992 0h.2v-.2h-.2zm-6.656 0v-.2h-.2v.2zm-7.296-.2h-7.04v.4h7.04zm-7.24.2v34.112h.4v-34.112zm0 34.112c0 3.6148.903 6.4862 2.708 8.4551 1.808 1.9719 4.491 3.0089 7.988 3.0089v-.4c-3.416 0-5.981-1.011-7.693-2.8791-1.715-1.8711-2.603-4.6317-2.603-8.1849zm10.696 11.464c3.496 0 6.179-1.037 7.987-3.0089 1.805-1.9689 2.709-4.8403 2.709-8.4551h-.4c0 3.5532-.889 6.3138-2.604 8.1849-1.712 1.8681-4.277 2.8791-7.692 2.8791zm10.696-11.464v-34.112h-.4v34.112zm-.2-34.312h-6.656v.4h6.656zm-6.856.2v34.56h.4v-34.56zm0 34.56c0 1.5753-.348 2.6048-.932 3.2407-.581.6322-1.429.9113-2.516.9113v.4c1.152 0 2.128-.2969 2.811-1.0407.68-.7401 1.037-1.8867 1.037-3.5113zm-3.448 4.152c-1.088 0-1.936-.2791-2.517-.9113-.584-.6359-.931-1.6654-.931-3.2407h-.4c0 1.6246.356 2.7712 1.036 3.5113.683.7438 1.659 1.0407 2.812 1.0407zm-3.448-4.152v-34.56h-.4v34.56zm18.58-34.56v-.2h-.2v.2zm0 44.8h-.2v.2h.2zm7.04 0v.2h.2v-.2zm0-16.832v-.2h-.2v.2zm0-21.568v-.2h-.2v.2zm0 15.168h-.2v.2h.2zm3.328-21.768h-10.368v.4h10.368zm-10.568.2v44.8h.4v-44.8zm.2 45h7.04v-.4h-7.04zm7.24-.2v-16.832h-.4v16.832zm-.2-16.632h3.328v-.4h-3.328zm3.328 0c3.556 0 6.241-.9869 8.034-2.9117 1.791-1.9222 2.662-4.7472 2.662-8.3603h-.4c0 3.5549-.858 6.2659-2.555 8.0877-1.695 1.8192-4.258 2.7843-7.741 2.7843zm10.696-11.272v-5.824h-.4v5.824zm0-5.824c0-3.6131-.871-6.4381-2.662-8.3603-1.793-1.9248-4.478-2.9117-8.034-2.9117v.4c3.483 0 6.046.9651 7.741 2.7843 1.697 1.8218 2.555 4.5328 2.555 8.0877zm-14.024-4.472h3.328v-.4h-3.328zm3.328 0c1.093 0 1.888.2499 2.418.845.535.6013.838 1.5968.838 3.179h.4c0-1.6178-.306-2.7343-.939-3.445-.638-.7169-1.571-.979-2.717-.979zm3.256 4.024v6.72h.4v-6.72zm0 6.72c0 1.5822-.303 2.5777-.838 3.179-.53.5951-1.325.845-2.418.845v.4c1.146 0 2.079-.2621 2.717-.979.633-.7107.939-1.8272.939-3.445zm-3.256 4.024h-3.328v.4h3.328zm-3.128.2v-15.168h-.4v15.168z" fill="#a8a8a8"/><path d="m22.95 64h9.52c-.935-2.21-1.02-4.335-1.02-7.225v-9.18c0-6.205-1.53-10.71-6.205-12.665 4.165-1.955 6.12-5.95 6.12-12.07v-4.675c0-9.18-4.165-13.685-13.855-13.685h-14.11v59.5h9.35v-24.225h3.23c4.25 0 6.12 2.04 6.12 7.565v9.35c0 4.845.34 5.78.85 7.31zm-10.2-51h4.505c3.315 0 4.76 1.87 4.76 6.12v5.865c0 4.76-2.125 6.29-5.61 6.29h-3.655zm24.2542 6.29v30.43c0 9.52 5.015 14.96 14.195 14.96s14.195-5.44 14.195-14.96v-10.88c0-8.755-3.485-13.6-10.37-13.6-4.165 0-7.055 1.87-8.67 5.27v-10.88c0-5.695 1.87-7.31 5.185-7.31 2.975 0 4.845 1.615 4.845 5.865v2.125h8.84v-1.53c0-9.52-4.76-14.96-13.94-14.96-9.69 0-14.28 5.44-14.28 15.47zm14.195 14.45c2.975 0 4.845 1.615 4.845 5.865v10.71c0 4.25-1.87 5.78-4.845 5.78s-4.845-1.53-4.845-5.78v-10.71c0-4.25 1.87-5.865 4.845-5.865z" fill="#ffd800"/><path d="m22.95 64-.1897.0632.0455.1368h.1442zm9.52 0v.2h.3018l-.1176-.2779zm-7.225-29.07-.085-.181-.4082.1915.416.174zm-21.845-30.43v-.2h-.2v.2zm0 59.5h-.2v.2h.2zm9.35 0v.2h.2v-.2zm0-24.225v-.2h-.2v.2zm0-26.775v-.2h-.2v.2zm0 18.275h-.2v.2h.2zm10.2 32.925h9.52v-.4h-9.52zm9.7042-.2779c-.9176-2.1689-1.0042-4.2569-1.0042-7.1471h-.4c0 2.8898.0834 5.0518 1.0358 7.3029zm-1.0042-7.1471v-9.18h-.4v9.18zm0-9.18c0-6.2269-1.5361-10.8457-6.3278-12.8495l-.1544.369c4.5583 1.9062 6.0822 6.2973 6.0822 12.4805zm-6.32-12.484c4.2615-2.0003 6.235-6.0876 6.235-12.251h-.4c0 6.0766-1.9365 9.9793-6.005 11.889zm6.235-12.251v-4.675h-.4v4.675zm0-4.675c0-4.616-1.0468-8.0991-3.3517-10.42576-2.3052-2.32696-5.8312-3.45924-10.7033-3.45924v.4c4.8179 0 8.2194 1.12022 10.4192 3.34075 2.2001 2.22085 3.2358 5.58025 3.2358 10.14425zm-14.055-13.885h-14.11v.4h14.11zm-14.31.2v59.5h.4v-59.5zm.2 59.7h9.35v-.4h-9.35zm9.55-.2v-24.225h-.4v24.225zm-.2-24.025h3.23v-.4h-3.23zm3.23 0c2.0959 0 3.5551.5026 4.5 1.6385.953 1.1456 1.42 2.9777 1.42 5.7265h.4c0-2.7762-.468-4.7266-1.5125-5.9823-1.0526-1.2654-2.6534-1.7827-4.8075-1.7827zm5.92 7.365v9.35h.4v-9.35zm0 9.35c0 2.4255.085 3.8818.2358 4.9267.1515 1.0498.3692 1.6807.6245 2.4465l.3794-.1264c-.2547-.7642-.462-1.3658-.608-2.3772-.1467-1.0164-.2317-2.4501-.2317-4.8696zm-9.15-43.49h4.505v-.4h-4.505zm4.505 0c1.6191 0 2.7398.4548 3.4652 1.3889.7345.9459 1.0948 2.421 1.0948 4.5311h.4c0-2.1399-.3622-3.7248-1.1789-4.7764-.8259-1.0634-2.0852-1.5436-3.7811-1.5436zm4.56 5.92v5.865h.4v-5.865zm0 5.865c0 2.3552-.5263 3.8653-1.4403 4.7894-.9131.9231-2.2521 1.3006-3.9697 1.3006v.4c1.7674 0 3.2334-.3875 4.2541-1.4194 1.0197-1.0309 1.5559-2.6658 1.5559-5.0706zm-5.41 6.09h-3.655v.4h3.655zm-3.455.2v-18.275h-.4v18.275zm33.4042-.765h-.2l.3807.0858zm10.03-10.2h-.2v.2h.2zm8.84 0v.2h.2v-.2zm-28.42-1.02v30.43h.4v-30.43zm0 30.43c0 4.7934 1.2628 8.5889 3.7094 11.1871 2.4484 2.6001 6.0558 3.9729 10.6856 3.9729v-.4c-4.5501 0-8.0403-1.3472-10.3944-3.8471-2.3559-2.5018-3.6006-6.1863-3.6006-10.9129zm14.395 15.16c4.6299 0 8.2372-1.3728 10.6856-3.9729 2.4467-2.5982 3.7094-6.3937 3.7094-11.1871h-.4c0 4.7266-1.2447 8.4111-3.6006 10.9129-2.3541 2.4999-5.8442 3.8471-10.3944 3.8471zm14.395-15.16v-10.88h-.4v10.88zm0-10.88c0-4.3991-.8747-7.8489-2.6432-10.2032-1.7757-2.364-4.4322-3.5968-7.9268-3.5968v.4c3.3905 0 5.9189 1.1897 7.607 3.437 1.6953 2.2569 2.563 5.6071 2.563 9.963zm-10.57-13.8c-2.1129 0-3.9145.4746-5.3963 1.3898-1.4822.9155-2.6327 2.2646-3.4543 3.9944l.3613.1716c.7933-1.6702 1.8953-2.9561 3.3032-3.8256 1.4081-.8698 3.1341-1.3302 5.1861-1.3302zm-8.47 5.47v-10.88h-.4v10.88zm0-10.88c0-2.8349.4673-4.6053 1.3063-5.6666.8286-1.0482 2.0524-1.4434 3.6787-1.4434v-.4c-1.6887 0-3.0574.4123-3.9925 1.5953-.9248 1.17-1.3925 3.0545-1.3925 5.9147zm4.985-7.11c1.4521 0 2.6001.3932 3.3893 1.2724.7931.8834 1.2557 2.2924 1.2557 4.3926h.4c0-2.1498-.4724-3.6733-1.358-4.6599-.8896-.9908-2.164-1.4051-3.687-1.4051zm4.645 5.665v2.125h.4v-2.125zm.2 2.325h8.84v-.4h-8.84zm9.04-.2v-1.53h-.4v1.53zm0-1.53c0-4.7908-1.1977-8.5862-3.58-11.18515-2.3851-2.60182-5.9299-3.97485-10.56-3.97485v.4c4.55 0 7.9751 1.34697 10.2651 3.84514 2.2926 2.50106 3.4749 6.18566 3.4749 10.91486zm-14.14-15.16c-4.8821 0-8.5142 1.37144-10.9222 4.03975-2.4046 2.66445-3.5578 6.58855-3.5578 11.63025h.4c0-4.9883 1.1418-8.7993 3.4547-11.36226 2.3096-2.55918 5.8175-3.90774 10.6253-3.90774zm-.085 30.32c1.4521 0 2.6001.3932 3.3893 1.2724.7931.8834 1.2557 2.2924 1.2557 4.3926h.4c0-2.1498-.4724-3.6733-1.358-4.6599-.8896-.9908-2.164-1.4051-3.687-1.4051zm4.645 5.665v10.71h.4v-10.71zm0 10.71c0 2.1003-.4627 3.4868-1.2541 4.3484-.7882.858-1.936 1.2316-3.3909 1.2316v.4c1.5201 0 2.7948-.3914 3.6854-1.361.8873-.9658 1.3596-2.4694 1.3596-4.619zm-4.645 5.58c-1.4549 0-2.6027-.3736-3.3908-1.2316-.7915-.8616-1.2542-2.2481-1.2542-4.3484h-.4c0 2.1496.4723 3.6532 1.3596 4.619.8906.9696 2.1653 1.361 3.6854 1.361zm-4.645-5.58v-10.71h-.4v10.71zm0-10.71c0-2.1002.4626-3.5092 1.2557-4.3926.7892-.8792 1.9373-1.2724 3.3893-1.2724v-.4c-1.5229 0-2.7974.4143-3.6869 1.4051-.8857.9866-1.3581 2.5101-1.3581 4.6599z" fill="#bc9f00"/><path d="m230.36 23.08 1.6 14.92h5.84l3.12-28h-3.84l-2.28 22.24-2.2-22.24h-4.24l-2.12 22.08-2.36-22.08h-4.28l3.12 28h6.04zm12.779-13.08v28h4.4v-28zm14.097 0h-6.48v28h4.4v-10.52h2.08c4.4 0 6.56-2.44 6.56-6.92v-3.64c0-4.48-2.16-6.92-6.56-6.92zm-2.08 4h2.08c1.4 0 2.16.64 2.16 2.64v4.2c0 2-.76 2.64-2.16 2.64h-2.08z" fill="#ffd800"/><path d="m230.36 23.08.199-.0213h-.398zm1.6 14.92-.199.0213.019.1787h.18zm5.84 0v.2h.179l.02-.1779zm3.12-28 .199.0221.025-.2221h-.224zm-3.84 0v-.2h-.181l-.018.1796zm-2.28 22.24-.199.0197.398.0007zm-2.2-22.24.199-.01969-.018-.18031h-.181zm-4.24 0v-.2h-.182l-.017.18088zm-2.12 22.08-.199.0213.398-.0022zm-2.36-22.08.199-.02126-.019-.17874h-.18zm-4.28 0v-.2h-.224l.025.2221zm3.12 28-.199.0221.02.1779h.179zm6.04 0v.2h.18l.019-.1787zm1.401-14.8987 1.6 14.92.398-.0426-1.6-14.92zm1.799 15.0987h5.84v-.4h-5.84zm6.039-.1779 3.12-28-.398-.04425-3.12 28.00005zm2.921-28.2221h-3.84v.4h3.84zm-4.039.1796-2.28 22.24.398.0408 2.28-22.24zm-1.882 22.2407-2.2-22.23999-.398.03939 2.2 22.24zm-2.399-22.4203h-4.24v.4h4.24zm-4.439.18088-2.12 22.08002.398.0382 2.12-22.08zm-1.722 22.07782-2.36-22.07996-.398.04256 2.36 22.08zm-2.559-22.2587h-4.28v.4h4.28zm-4.479.2221 3.12 28 .398-.0442-3.12-28.00005zm3.319 28.1779h6.04v-.4h-6.04zm6.239-.1787 1.6-14.92-.398-.0426-1.6 14.92zm14.18-28.0213v-.2h-.2v.2zm0 28h-.2v.2h.2zm4.4 0v.2h.2v-.2zm0-28h.2v-.2h-.2zm-4.6 0v28h.4v-28zm.2 28.2h4.4v-.4h-4.4zm4.6-.2v-28h-.4v28zm-.2-28.2h-4.4v.4h4.4zm3.217.2v-.2h-.2v.2zm0 28h-.2v.2h.2zm4.4 0v.2h.2v-.2zm0-10.52v-.2h-.2v.2zm0-13.48v-.2h-.2v.2zm0 9.48h-.2v.2h.2zm2.08-13.68h-6.48v.4h6.48zm-6.68.2v28h.4v-28zm.2 28.2h4.4v-.4h-4.4zm4.6-.2v-10.52h-.4v10.52zm-.2-10.32h2.08v-.4h-2.08zm2.08 0c2.237 0 3.937-.6209 5.077-1.8437 1.136-1.2202 1.683-3.0072 1.683-5.2763h-.4c0 2.2109-.533 3.8839-1.576 5.0037-1.041 1.1172-2.62 1.7163-4.784 1.7163zm6.76-7.12v-3.64h-.4v3.64zm0-3.64c0-2.2691-.547-4.0561-1.683-5.2763-1.14-1.2228-2.84-1.8437-5.077-1.8437v.4c2.164 0 3.743.5991 4.784 1.7163 1.043 1.1198 1.576 2.7928 1.576 5.0037zm-8.84-2.72h2.08v-.4h-2.08zm2.08 0c.673 0 1.145.1539 1.456.503.316.3553.504.9548.504 1.937h.4c0-1.0178-.192-1.7383-.605-2.203-.42-.4709-1.028-.637-1.755-.637zm1.96 2.44v4.2h.4v-4.2zm0 4.2c0 .9822-.188 1.5817-.504 1.937-.311.3491-.783.503-1.456.503v.4c.727 0 1.335-.1661 1.755-.637.413-.4647.605-1.1852.605-2.203zm-1.96 2.44h-2.08v.4h2.08zm-1.88.2v-9.48h-.4v9.48z" fill="#bc9f00"/></svg>